# xmcd
#
# Track frame offsets: 
#        150
#        13843
#        25796
#        37294
#        46825
#        57938
#        70276
#        81721
#        94321
#        105276
#        117525
#        130128
#        143285
#        156125
#        167430
#        178744
#        192662
#        207387
#        219833
#        248446
#        263420
#        275776
#        291385
#        303469
#
# Disc length: 4336 seconds
#
# Revision: 1
# Processed by: cddbd v1.5.2PL0 Copyright (c) Steve Scherf et al.
# Submitted via: ExactAudioCopy v1.0b1
#
DISCID=6110ee18
DTITLE=Various Artist - The Sweetest Feeling: a Van Mccoy Songbook 1962-1973
DYEAR=1900
DGENRE=R&B
TTITLE0=Erma Franklin - I Get The Sweetest Feeling (stereo)
TTITLE1=Jackie Wilson - I've Lost You (stereo)
TTITLE2=The Spellbinders - For You (stereo)
TTITLE3=Betty Everett - Getting Mighty Crowded (mono)
TTITLE4=Ruby and The Romantics - When You're Young And In Love (stereo)
TTITLE5=Nina Simone - Either Way I Lose (stereo)
TTITLE6=Barbara Lewis - Baby I'm Yours (stereo)
TTITLE7=Chuck Jackson - Who's Gonna Pick Up The Pieces (stereo)
TTITLE8=Little Esther Phillips - Some Things You Never Get Used To (mo
TTITLE8=no)
TTITLE9=Jerry Butler - I Can't Stand To See You Cry (mono)
TTITLE10=Billy T. Soul - The Way To A Woman's Heart (mono)
TTITLE11=Teri Thornton - Why don't You Love Me (mono)
TTITLE12=Gladys Knight and The Pips - Stop And Get A Hold Of Myself (mon
TTITLE12=o)
TTITLE13=Irma Thomas - It's Starting To Get To Me Now (stereo)
TTITLE14=Nancy Wilson - Where Does That Leave Me (stereo)
TTITLE15=Oscar Weathers - The Spoiler (mono)
TTITLE16=Ilana - Where Would You Be Today (stereo)
TTITLE17=Aretha Franklin - So Soon (mono)
TTITLE18=Donny Hathaway - Giving Up (stereo)
TTITLE19=G.C. Cameron - Let Me Down Easy (stereo)
TTITLE20=The Ad Libs - Nothing Worse Than Being Alone (mono)
TTITLE21=Sharon Ridley - Stay A While With Me (stereo)
TTITLE22=Brenda and The Tabulations - A Love You Can Depend On (mono)
TTITLE23=Melba Moore - Lean On Me (stereo)
EXTD=
EXTT0=
EXTT1=
EXTT2=
EXTT3=
EXTT4=
EXTT5=
EXTT6=
EXTT7=
EXTT8=
EXTT9=
EXTT10=
EXTT11=
EXTT12=
EXTT13=
EXTT14=
EXTT15=
EXTT16=
EXTT17=
EXTT18=
EXTT19=
EXTT20=
EXTT21=
EXTT22=
EXTT23=
PLAYORDER=
